<?xml version="1.0" encoding="utf-8" standalone="no"?>
<!DOCTYPE svg PUBLIC "-//W3C//DTD SVG 1.1//EN"
  "http://www.w3.org/Graphics/SVG/1.1/DTD/svg11.dtd">
<svg xmlns:xlink="http://www.w3.org/1999/xlink" width="640.204833pt" height="336.877812pt" viewBox="0 0 640.204833 336.877812" xmlns="http://www.w3.org/2000/svg" version="1.1">
 <metadata>
  <rdf:RDF xmlns:dc="http://purl.org/dc/elements/1.1/" xmlns:cc="http://creativecommons.org/ns#" xmlns:rdf="http://www.w3.org/1999/02/22-rdf-syntax-ns#">
   <cc:Work>
    <dc:type rdf:resource="http://purl.org/dc/dcmitype/StillImage"/>
    <dc:date>2026-03-16T05:18:42.176227</dc:date>
    <dc:format>image/svg+xml</dc:format>
    <dc:creator>
     <cc:Agent>
      <dc:title>Matplotlib v3.9.4, https://matplotlib.org/</dc:title>
     </cc:Agent>
    </dc:creator>
   </cc:Work>
  </rdf:RDF>
 </metadata>
 <defs>
  <style type="text/css">*{stroke-linejoin: round; stroke-linecap: butt}</style>
 </defs>
 <g id="figure_1">
  <g id="patch_1">
   <path d="M 0 336.877812 
L 640.204833 336.877812 
L 640.204833 0 
L 0 0 
z
" style="fill: #ffffff"/>
  </g>
  <g id="axes_1">
   <g id="patch_2">
    <path d="M 18.77568 305.370612 
L 146.10816 305.370612 
Q 149.00208 305.370612 149.00208 302.332212 
L 149.00208 47.106612 
Q 149.00208 44.068212 146.10816 44.068212 
L 18.77568 44.068212 
Q 15.88176 44.068212 15.88176 47.106612 
L 15.88176 302.332212 
Q 15.88176 305.370612 18.77568 305.370612 
z
" clip-path="url(#pc2d1ceabb8)" style="fill: #f5f5f5; stroke: #aaaaaa; stroke-width: 1.2; stroke-linejoin: miter"/>
   </g>
   <g id="text_1">
    <!-- Alive -->
    <g style="fill: #666666" transform="translate(67.76067 42.821862) scale(0.12 -0.12)">
     <defs>
      <path id="DejaVuSans-Oblique-41" d="M 2356 4666 
L 3072 4666 
L 3938 0 
L 3278 0 
L 3084 1197 
L 984 1197 
L 325 0 
L -341 0 
L 2356 4666 
z
M 2584 4044 
L 1275 1722 
L 2988 1722 
L 2584 4044 
z
" transform="scale(0.015625)"/>
      <path id="DejaVuSans-Oblique-6c" d="M 1172 4863 
L 1747 4863 
L 800 0 
L 225 0 
L 1172 4863 
z
" transform="scale(0.015625)"/>
      <path id="DejaVuSans-Oblique-69" d="M 1172 4863 
L 1747 4863 
L 1606 4134 
L 1031 4134 
L 1172 4863 
z
M 909 3500 
L 1484 3500 
L 800 0 
L 225 0 
L 909 3500 
z
" transform="scale(0.015625)"/>
      <path id="DejaVuSans-Oblique-76" d="M 459 3500 
L 1069 3500 
L 1581 525 
L 3256 3500 
L 3866 3500 
L 1875 0 
L 1100 0 
L 459 3500 
z
" transform="scale(0.015625)"/>
      <path id="DejaVuSans-Oblique-65" d="M 3078 2063 
Q 3088 2113 3092 2166 
Q 3097 2219 3097 2272 
Q 3097 2653 2873 2875 
Q 2650 3097 2266 3097 
Q 1838 3097 1509 2826 
Q 1181 2556 1013 2059 
L 3078 2063 
z
M 3578 1613 
L 903 1613 
Q 884 1494 878 1425 
Q 872 1356 872 1306 
Q 872 872 1139 634 
Q 1406 397 1894 397 
Q 2269 397 2603 481 
Q 2938 566 3225 728 
L 3116 159 
Q 2806 34 2476 -28 
Q 2147 -91 1806 -91 
Q 1078 -91 686 257 
Q 294 606 294 1247 
Q 294 1794 489 2264 
Q 684 2734 1063 3103 
Q 1306 3334 1642 3459 
Q 1978 3584 2356 3584 
Q 2950 3584 3301 3228 
Q 3653 2872 3653 2272 
Q 3653 2128 3634 1964 
Q 3616 1800 3578 1613 
z
" transform="scale(0.015625)"/>
     </defs>
     <use xlink:href="#DejaVuSans-Oblique-41"/>
     <use xlink:href="#DejaVuSans-Oblique-6c" x="68.408203"/>
     <use xlink:href="#DejaVuSans-Oblique-69" x="96.191406"/>
     <use xlink:href="#DejaVuSans-Oblique-76" x="123.974609"/>
     <use xlink:href="#DejaVuSans-Oblique-65" x="183.154297"/>
    </g>
   </g>
   <g id="patch_3">
    <path d="M 79.548 139.777812 
C 88.37398 139.777812 96.83966 137.05658 103.08057 132.213435 
C 109.321481 127.37029 112.82808 120.800654 112.82808 113.951412 
C 112.82808 107.102171 109.321481 100.532535 103.08057 95.68939 
C 96.83966 90.846245 88.37398 88.125012 79.548 88.125012 
C 70.72202 88.125012 62.25634 90.846245 56.01543 95.68939 
C 49.774519 100.532535 46.26792 107.102171 46.26792 113.951412 
C 46.26792 120.800654 49.774519 127.37029 56.01543 132.213435 
C 62.25634 137.05658 70.72202 139.777812 79.548 139.777812 
z
" clip-path="url(#pc2d1ceabb8)" style="fill: #c8e6c9; stroke: #000000; stroke-width: 1.5; stroke-linejoin: miter"/>
   </g>
   <g id="patch_4">
    <path d="M 79.548 267.390612 
C 88.37398 267.390612 96.83966 264.66938 103.08057 259.826235 
C 109.321481 254.98309 112.82808 248.413454 112.82808 241.564212 
C 112.82808 234.714971 109.321481 228.145335 103.08057 223.30219 
C 96.83966 218.459045 88.37398 215.737812 79.548 215.737812 
C 70.72202 215.737812 62.25634 218.459045 56.01543 223.30219 
C 49.774519 228.145335 46.26792 234.714971 46.26792 241.564212 
C 46.26792 248.413454 49.774519 254.98309 56.01543 259.826235 
C 62.25634 264.66938 70.72202 267.390612 79.548 267.390612 
z
" clip-path="url(#pc2d1ceabb8)" style="fill: #fff3cd; stroke: #000000; stroke-width: 1.5; stroke-linejoin: miter"/>
   </g>
   <g id="patch_5">
    <path d="M 221.35008 203.584212 
C 230.17606 203.584212 238.64174 200.86298 244.88265 196.019835 
C 251.123561 191.17669 254.63016 184.607054 254.63016 177.757812 
C 254.63016 170.908571 251.123561 164.338935 244.88265 159.49579 
C 238.64174 154.652645 230.17606 151.931412 221.35008 151.931412 
C 212.5241 151.931412 204.05842 154.652645 197.81751 159.49579 
C 191.576599 164.338935 188.07 170.908571 188.07 177.757812 
C 188.07 184.607054 191.576599 191.17669 197.81751 196.019835 
C 204.05842 200.86298 212.5241 203.584212 221.35008 203.584212 
z
" clip-path="url(#pc2d1ceabb8)" style="fill: #f8d7da; stroke: #000000; stroke-width: 1.5; stroke-linejoin: miter"/>
   </g>
   <g id="text_2">
    <!-- (a) Organization-owned -->
    <g transform="translate(58.557563 17.837812) scale(0.14 -0.14)">
     <defs>
      <path id="DejaVuSans-Bold-28" d="M 2413 -844 
L 1484 -844 
Q 1006 -72 778 623 
Q 550 1319 550 2003 
Q 550 2688 779 3389 
Q 1009 4091 1484 4856 
L 2413 4856 
Q 2013 4116 1813 3408 
Q 1613 2700 1613 2009 
Q 1613 1319 1811 609 
Q 2009 -100 2413 -844 
z
" transform="scale(0.015625)"/>
      <path id="DejaVuSans-Bold-61" d="M 2106 1575 
Q 1756 1575 1579 1456 
Q 1403 1338 1403 1106 
Q 1403 894 1545 773 
Q 1688 653 1941 653 
Q 2256 653 2472 879 
Q 2688 1106 2688 1447 
L 2688 1575 
L 2106 1575 
z
M 3816 1997 
L 3816 0 
L 2688 0 
L 2688 519 
Q 2463 200 2181 54 
Q 1900 -91 1497 -91 
Q 953 -91 614 226 
Q 275 544 275 1050 
Q 275 1666 698 1953 
Q 1122 2241 2028 2241 
L 2688 2241 
L 2688 2328 
Q 2688 2594 2478 2717 
Q 2269 2841 1825 2841 
Q 1466 2841 1156 2769 
Q 847 2697 581 2553 
L 581 3406 
Q 941 3494 1303 3539 
Q 1666 3584 2028 3584 
Q 2975 3584 3395 3211 
Q 3816 2838 3816 1997 
z
" transform="scale(0.015625)"/>
      <path id="DejaVuSans-Bold-29" d="M 513 -844 
Q 913 -100 1113 609 
Q 1313 1319 1313 2009 
Q 1313 2700 1113 3408 
Q 913 4116 513 4856 
L 1441 4856 
Q 1916 4091 2145 3389 
Q 2375 2688 2375 2003 
Q 2375 1319 2147 623 
Q 1919 -72 1441 -844 
L 513 -844 
z
" transform="scale(0.015625)"/>
      <path id="DejaVuSans-Bold-20" transform="scale(0.015625)"/>
      <path id="DejaVuSans-Bold-4f" d="M 2719 3878 
Q 2169 3878 1866 3472 
Q 1563 3066 1563 2328 
Q 1563 1594 1866 1187 
Q 2169 781 2719 781 
Q 3272 781 3575 1187 
Q 3878 1594 3878 2328 
Q 3878 3066 3575 3472 
Q 3272 3878 2719 3878 
z
M 2719 4750 
Q 3844 4750 4481 4106 
Q 5119 3463 5119 2328 
Q 5119 1197 4481 553 
Q 3844 -91 2719 -91 
Q 1597 -91 958 553 
Q 319 1197 319 2328 
Q 319 3463 958 4106 
Q 1597 4750 2719 4750 
z
" transform="scale(0.015625)"/>
      <path id="DejaVuSans-Bold-72" d="M 3138 2547 
Q 2991 2616 2845 2648 
Q 2700 2681 2553 2681 
Q 2122 2681 1889 2404 
Q 1656 2128 1656 1613 
L 1656 0 
L 538 0 
L 538 3500 
L 1656 3500 
L 1656 2925 
Q 1872 3269 2151 3426 
Q 2431 3584 2822 3584 
Q 2878 3584 2943 3579 
Q 3009 3575 3134 3559 
L 3138 2547 
z
" transform="scale(0.015625)"/>
      <path id="DejaVuSans-Bold-67" d="M 2919 594 
Q 2688 288 2409 144 
Q 2131 0 1766 0 
Q 1125 0 706 504 
Q 288 1009 288 1791 
Q 288 2575 706 3076 
Q 1125 3578 1766 3578 
Q 2131 3578 2409 3434 
Q 2688 3291 2919 2981 
L 2919 3500 
L 4044 3500 
L 4044 353 
Q 4044 -491 3511 -936 
Q 2978 -1381 1966 -1381 
Q 1638 -1381 1331 -1331 
Q 1025 -1281 716 -1178 
L 716 -306 
Q 1009 -475 1290 -558 
Q 1572 -641 1856 -641 
Q 2406 -641 2662 -400 
Q 2919 -159 2919 353 
L 2919 594 
z
M 2181 2772 
Q 1834 2772 1640 2515 
Q 1447 2259 1447 1791 
Q 1447 1309 1634 1061 
Q 1822 813 2181 813 
Q 2531 813 2725 1069 
Q 2919 1325 2919 1791 
Q 2919 2259 2725 2515 
Q 2531 2772 2181 2772 
z
" transform="scale(0.015625)"/>
      <path id="DejaVuSans-Bold-6e" d="M 4056 2131 
L 4056 0 
L 2931 0 
L 2931 347 
L 2931 1631 
Q 2931 2084 2911 2256 
Q 2891 2428 2841 2509 
Q 2775 2619 2662 2680 
Q 2550 2741 2406 2741 
Q 2056 2741 1856 2470 
Q 1656 2200 1656 1722 
L 1656 0 
L 538 0 
L 538 3500 
L 1656 3500 
L 1656 2988 
Q 1909 3294 2193 3439 
Q 2478 3584 2822 3584 
Q 3428 3584 3742 3212 
Q 4056 2841 4056 2131 
z
" transform="scale(0.015625)"/>
      <path id="DejaVuSans-Bold-69" d="M 538 3500 
L 1656 3500 
L 1656 0 
L 538 0 
L 538 3500 
z
M 538 4863 
L 1656 4863 
L 1656 3950 
L 538 3950 
L 538 4863 
z
" transform="scale(0.015625)"/>
      <path id="DejaVuSans-Bold-7a" d="M 366 3500 
L 3419 3500 
L 3419 2719 
L 1575 800 
L 3419 800 
L 3419 0 
L 288 0 
L 288 781 
L 2131 2700 
L 366 2700 
L 366 3500 
z
" transform="scale(0.015625)"/>
      <path id="DejaVuSans-Bold-74" d="M 1759 4494 
L 1759 3500 
L 2913 3500 
L 2913 2700 
L 1759 2700 
L 1759 1216 
Q 1759 972 1856 886 
Q 1953 800 2241 800 
L 2816 800 
L 2816 0 
L 1856 0 
Q 1194 0 917 276 
Q 641 553 641 1216 
L 641 2700 
L 84 2700 
L 84 3500 
L 641 3500 
L 641 4494 
L 1759 4494 
z
" transform="scale(0.015625)"/>
      <path id="DejaVuSans-Bold-6f" d="M 2203 2784 
Q 1831 2784 1636 2517 
Q 1441 2250 1441 1747 
Q 1441 1244 1636 976 
Q 1831 709 2203 709 
Q 2569 709 2762 976 
Q 2956 1244 2956 1747 
Q 2956 2250 2762 2517 
Q 2569 2784 2203 2784 
z
M 2203 3584 
Q 3106 3584 3614 3096 
Q 4122 2609 4122 1747 
Q 4122 884 3614 396 
Q 3106 -91 2203 -91 
Q 1297 -91 786 396 
Q 275 884 275 1747 
Q 275 2609 786 3096 
Q 1297 3584 2203 3584 
z
" transform="scale(0.015625)"/>
      <path id="DejaVuSans-Bold-2d" d="M 347 2297 
L 2309 2297 
L 2309 1388 
L 347 1388 
L 347 2297 
z
" transform="scale(0.015625)"/>
      <path id="DejaVuSans-Bold-77" d="M 225 3500 
L 1313 3500 
L 1900 1088 
L 2491 3500 
L 3425 3500 
L 4013 1113 
L 4603 3500 
L 5691 3500 
L 4769 0 
L 3547 0 
L 2956 2406 
L 2369 0 
L 1147 0 
L 225 3500 
z
" transform="scale(0.015625)"/>
      <path id="DejaVuSans-Bold-65" d="M 4031 1759 
L 4031 1441 
L 1416 1441 
Q 1456 1047 1700 850 
Q 1944 653 2381 653 
Q 2734 653 3104 758 
Q 3475 863 3866 1075 
L 3866 213 
Q 3469 63 3072 -14 
Q 2675 -91 2278 -91 
Q 1328 -91 801 392 
Q 275 875 275 1747 
Q 275 2603 792 3093 
Q 1309 3584 2216 3584 
Q 3041 3584 3536 3087 
Q 4031 2591 4031 1759 
z
M 2881 2131 
Q 2881 2450 2695 2645 
Q 2509 2841 2209 2841 
Q 1884 2841 1681 2658 
Q 1478 2475 1428 2131 
L 2881 2131 
z
" transform="scale(0.015625)"/>
      <path id="DejaVuSans-Bold-64" d="M 2919 2988 
L 2919 4863 
L 4044 4863 
L 4044 0 
L 2919 0 
L 2919 506 
Q 2688 197 2409 53 
Q 2131 -91 1766 -91 
Q 1119 -91 703 423 
Q 288 938 288 1747 
Q 288 2556 703 3070 
Q 1119 3584 1766 3584 
Q 2128 3584 2408 3439 
Q 2688 3294 2919 2988 
z
M 2181 722 
Q 2541 722 2730 984 
Q 2919 1247 2919 1747 
Q 2919 2247 2730 2509 
Q 2541 2772 2181 2772 
Q 1825 2772 1636 2509 
Q 1447 2247 1447 1747 
Q 1447 1247 1636 984 
Q 1825 722 2181 722 
z
" transform="scale(0.015625)"/>
     </defs>
     <use xlink:href="#DejaVuSans-Bold-28"/>
     <use xlink:href="#DejaVuSans-Bold-61" x="45.703125"/>
     <use xlink:href="#DejaVuSans-Bold-29" x="113.183594"/>
     <use xlink:href="#DejaVuSans-Bold-20" x="158.886719"/>
     <use xlink:href="#DejaVuSans-Bold-4f" x="193.701172"/>
     <use xlink:href="#DejaVuSans-Bold-72" x="278.710938"/>
     <use xlink:href="#DejaVuSans-Bold-67" x="328.027344"/>
     <use xlink:href="#DejaVuSans-Bold-61" x="399.609375"/>
     <use xlink:href="#DejaVuSans-Bold-6e" x="467.089844"/>
     <use xlink:href="#DejaVuSans-Bold-69" x="538.28125"/>
     <use xlink:href="#DejaVuSans-Bold-7a" x="572.558594"/>
     <use xlink:href="#DejaVuSans-Bold-61" x="630.761719"/>
     <use xlink:href="#DejaVuSans-Bold-74" x="698.242188"/>
     <use xlink:href="#DejaVuSans-Bold-69" x="746.044922"/>
     <use xlink:href="#DejaVuSans-Bold-6f" x="780.322266"/>
     <use xlink:href="#DejaVuSans-Bold-6e" x="849.023438"/>
     <use xlink:href="#DejaVuSans-Bold-2d" x="920.214844"/>
     <use xlink:href="#DejaVuSans-Bold-6f" x="961.71875"/>
     <use xlink:href="#DejaVuSans-Bold-77" x="1030.419922"/>
     <use xlink:href="#DejaVuSans-Bold-6e" x="1122.802734"/>
     <use xlink:href="#DejaVuSans-Bold-65" x="1193.994141"/>
     <use xlink:href="#DejaVuSans-Bold-64" x="1261.816406"/>
    </g>
   </g>
   <g id="patch_6">
    <path d="M 65.927994 91.476058 
Q 79.54847 63.270434 92.536948 90.169158 
" clip-path="url(#pc2d1ceabb8)" style="fill: none; stroke: #000000; stroke-width: 1.3; stroke-linecap: round"/>
    <path d="M 92.617181 84.355935 
L 92.536948 90.169158 
L 87.934509 86.617038 
z
" clip-path="url(#pc2d1ceabb8)" style="stroke: #000000; stroke-width: 1.3; stroke-linecap: round"/>
   </g>
   <g id="patch_7">
    <path d="M 93.168006 264.039567 
Q 79.54753 292.245191 66.559052 265.346467 
" clip-path="url(#pc2d1ceabb8)" style="fill: none; stroke: #000000; stroke-width: 1.3; stroke-linecap: round"/>
    <path d="M 66.478819 271.15969 
L 66.559052 265.346467 
L 71.161491 268.898587 
z
" clip-path="url(#pc2d1ceabb8)" style="stroke: #000000; stroke-width: 1.3; stroke-linecap: round"/>
   </g>
   <g id="patch_8">
    <path d="M 251.444807 167.064588 
Q 273.231403 177.757267 252.751772 187.809524 
" clip-path="url(#pc2d1ceabb8)" style="fill: none; stroke: #000000; stroke-width: 1.3; stroke-linecap: round"/>
    <path d="M 258.565392 187.852275 
L 252.751772 187.809524 
L 256.274145 183.184279 
z
" clip-path="url(#pc2d1ceabb8)" style="stroke: #000000; stroke-width: 1.3; stroke-linecap: round"/>
   </g>
   <g id="patch_9">
    <path d="M 72.3132 141.776028 
Q 72.3132 177.75701 72.3132 212.284547 
" clip-path="url(#pc2d1ceabb8)" style="fill: none; stroke: #000000; stroke-width: 1.3; stroke-linecap: round"/>
    <path d="M 74.9132 207.084547 
L 72.3132 212.284547 
L 69.7132 207.084547 
z
" clip-path="url(#pc2d1ceabb8)" style="stroke: #000000; stroke-width: 1.3; stroke-linecap: round"/>
   </g>
   <g id="patch_10">
    <path d="M 86.7828 213.739597 
Q 86.7828 177.758615 86.7828 143.231078 
" clip-path="url(#pc2d1ceabb8)" style="fill: none; stroke: #000000; stroke-width: 1.3; stroke-linecap: round"/>
    <path d="M 84.1828 148.431078 
L 86.7828 143.231078 
L 89.3828 148.431078 
z
" clip-path="url(#pc2d1ceabb8)" style="stroke: #000000; stroke-width: 1.3; stroke-linecap: round"/>
   </g>
   <g id="patch_11">
    <path d="M 114.053869 110.971786 
Q 143.443853 148.450425 184.961274 168.658843 
" clip-path="url(#pc2d1ceabb8)" style="fill: none; stroke: #000000; stroke-width: 1.3; stroke-linecap: round"/>
    <path d="M 181.423628 164.045269 
L 184.961274 168.658843 
L 179.147827 168.720815 
z
" clip-path="url(#pc2d1ceabb8)" style="stroke: #000000; stroke-width: 1.3; stroke-linecap: round"/>
   </g>
   <g id="patch_12">
    <path d="M 186.920426 183.720429 
Q 158.167865 143.246411 115.865426 120.156809 
" clip-path="url(#pc2d1ceabb8)" style="fill: none; stroke: #000000; stroke-width: 1.3; stroke-linecap: round"/>
    <path d="M 119.184116 124.930308 
L 115.865426 120.156809 
L 121.67544 120.365957 
z
" clip-path="url(#pc2d1ceabb8)" style="stroke: #000000; stroke-width: 1.3; stroke-linecap: round"/>
   </g>
   <g id="patch_13">
    <path d="M 114.174322 235.527772 
Q 144.508783 202.528962 184.852135 186.612848 
" clip-path="url(#pc2d1ceabb8)" style="fill: none; stroke: #000000; stroke-width: 1.3; stroke-linecap: round"/>
    <path d="M 179.060792 186.102606 
L 184.852135 186.612848 
L 180.969135 190.939777 
z
" clip-path="url(#pc2d1ceabb8)" style="stroke: #000000; stroke-width: 1.3; stroke-linecap: round"/>
   </g>
   <g id="patch_14">
    <path d="M 187.025256 171.868733 
Q 159.23722 216.849346 115.751216 244.287212 
" clip-path="url(#pc2d1ceabb8)" style="fill: none; stroke: #000000; stroke-width: 1.3; stroke-linecap: round"/>
    <path d="M 121.536396 243.711286 
L 115.751216 244.287212 
L 118.761583 239.313512 
z
" clip-path="url(#pc2d1ceabb8)" style="stroke: #000000; stroke-width: 1.3; stroke-linecap: round"/>
   </g>
   <g id="text_3">
    <!-- Running -->
    <g transform="translate(49.153391 110.803339) scale(0.13 -0.13)">
     <defs>
      <path id="DejaVuSans-Bold-52" d="M 2297 2597 
Q 2675 2597 2839 2737 
Q 3003 2878 3003 3200 
Q 3003 3519 2839 3656 
Q 2675 3794 2297 3794 
L 1791 3794 
L 1791 2597 
L 2297 2597 
z
M 1791 1766 
L 1791 0 
L 588 0 
L 588 4666 
L 2425 4666 
Q 3347 4666 3776 4356 
Q 4206 4047 4206 3378 
Q 4206 2916 3982 2619 
Q 3759 2322 3309 2181 
Q 3556 2125 3751 1926 
Q 3947 1728 4147 1325 
L 4800 0 
L 3519 0 
L 2950 1159 
Q 2778 1509 2601 1637 
Q 2425 1766 2131 1766 
L 1791 1766 
z
" transform="scale(0.015625)"/>
      <path id="DejaVuSans-Bold-75" d="M 500 1363 
L 500 3500 
L 1625 3500 
L 1625 3150 
Q 1625 2866 1622 2436 
Q 1619 2006 1619 1863 
Q 1619 1441 1641 1255 
Q 1663 1069 1716 984 
Q 1784 875 1895 815 
Q 2006 756 2150 756 
Q 2500 756 2700 1025 
Q 2900 1294 2900 1772 
L 2900 3500 
L 4019 3500 
L 4019 0 
L 2900 0 
L 2900 506 
Q 2647 200 2364 54 
Q 2081 -91 1741 -91 
Q 1134 -91 817 281 
Q 500 653 500 1363 
z
" transform="scale(0.015625)"/>
     </defs>
     <use xlink:href="#DejaVuSans-Bold-52"/>
     <use xlink:href="#DejaVuSans-Bold-75" x="77.001953"/>
     <use xlink:href="#DejaVuSans-Bold-6e" x="148.193359"/>
     <use xlink:href="#DejaVuSans-Bold-6e" x="219.384766"/>
     <use xlink:href="#DejaVuSans-Bold-69" x="290.576172"/>
     <use xlink:href="#DejaVuSans-Bold-6e" x="324.853516"/>
     <use xlink:href="#DejaVuSans-Bold-67" x="396.044922"/>
    </g>
   </g>
   <g id="text_4">
    <!-- (3.06m) -->
    <g style="fill: #333333" transform="translate(57.652844 124.582725) scale(0.11 -0.11)">
     <defs>
      <path id="DejaVuSans-28" d="M 1984 4856 
Q 1566 4138 1362 3434 
Q 1159 2731 1159 2009 
Q 1159 1288 1364 580 
Q 1569 -128 1984 -844 
L 1484 -844 
Q 1016 -109 783 600 
Q 550 1309 550 2009 
Q 550 2706 781 3412 
Q 1013 4119 1484 4856 
L 1984 4856 
z
" transform="scale(0.015625)"/>
      <path id="DejaVuSans-33" d="M 2597 2516 
Q 3050 2419 3304 2112 
Q 3559 1806 3559 1356 
Q 3559 666 3084 287 
Q 2609 -91 1734 -91 
Q 1441 -91 1130 -33 
Q 819 25 488 141 
L 488 750 
Q 750 597 1062 519 
Q 1375 441 1716 441 
Q 2309 441 2620 675 
Q 2931 909 2931 1356 
Q 2931 1769 2642 2001 
Q 2353 2234 1838 2234 
L 1294 2234 
L 1294 2753 
L 1863 2753 
Q 2328 2753 2575 2939 
Q 2822 3125 2822 3475 
Q 2822 3834 2567 4026 
Q 2313 4219 1838 4219 
Q 1578 4219 1281 4162 
Q 984 4106 628 3988 
L 628 4550 
Q 988 4650 1302 4700 
Q 1616 4750 1894 4750 
Q 2613 4750 3031 4423 
Q 3450 4097 3450 3541 
Q 3450 3153 3228 2886 
Q 3006 2619 2597 2516 
z
" transform="scale(0.015625)"/>
      <path id="DejaVuSans-2e" d="M 684 794 
L 1344 794 
L 1344 0 
L 684 0 
L 684 794 
z
" transform="scale(0.015625)"/>
      <path id="DejaVuSans-30" d="M 2034 4250 
Q 1547 4250 1301 3770 
Q 1056 3291 1056 2328 
Q 1056 1369 1301 889 
Q 1547 409 2034 409 
Q 2525 409 2770 889 
Q 3016 1369 3016 2328 
Q 3016 3291 2770 3770 
Q 2525 4250 2034 4250 
z
M 2034 4750 
Q 2819 4750 3233 4129 
Q 3647 3509 3647 2328 
Q 3647 1150 3233 529 
Q 2819 -91 2034 -91 
Q 1250 -91 836 529 
Q 422 1150 422 2328 
Q 422 3509 836 4129 
Q 1250 4750 2034 4750 
z
" transform="scale(0.015625)"/>
      <path id="DejaVuSans-36" d="M 2113 2584 
Q 1688 2584 1439 2293 
Q 1191 2003 1191 1497 
Q 1191 994 1439 701 
Q 1688 409 2113 409 
Q 2538 409 2786 701 
Q 3034 994 3034 1497 
Q 3034 2003 2786 2293 
Q 2538 2584 2113 2584 
z
M 3366 4563 
L 3366 3988 
Q 3128 4100 2886 4159 
Q 2644 4219 2406 4219 
Q 1781 4219 1451 3797 
Q 1122 3375 1075 2522 
Q 1259 2794 1537 2939 
Q 1816 3084 2150 3084 
Q 2853 3084 3261 2657 
Q 3669 2231 3669 1497 
Q 3669 778 3244 343 
Q 2819 -91 2113 -91 
Q 1303 -91 875 529 
Q 447 1150 447 2328 
Q 447 3434 972 4092 
Q 1497 4750 2381 4750 
Q 2619 4750 2861 4703 
Q 3103 4656 3366 4563 
z
" transform="scale(0.015625)"/>
      <path id="DejaVuSans-6d" d="M 3328 2828 
Q 3544 3216 3844 3400 
Q 4144 3584 4550 3584 
Q 5097 3584 5394 3201 
Q 5691 2819 5691 2113 
L 5691 0 
L 5113 0 
L 5113 2094 
Q 5113 2597 4934 2840 
Q 4756 3084 4391 3084 
Q 3944 3084 3684 2787 
Q 3425 2491 3425 1978 
L 3425 0 
L 2847 0 
L 2847 2094 
Q 2847 2600 2669 2842 
Q 2491 3084 2119 3084 
Q 1678 3084 1418 2786 
Q 1159 2488 1159 1978 
L 1159 0 
L 581 0 
L 581 3500 
L 1159 3500 
L 1159 2956 
Q 1356 3278 1631 3431 
Q 1906 3584 2284 3584 
Q 2666 3584 2933 3390 
Q 3200 3197 3328 2828 
z
" transform="scale(0.015625)"/>
      <path id="DejaVuSans-29" d="M 513 4856 
L 1013 4856 
Q 1481 4119 1714 3412 
Q 1947 2706 1947 2009 
Q 1947 1309 1714 600 
Q 1481 -109 1013 -844 
L 513 -844 
Q 928 -128 1133 580 
Q 1338 1288 1338 2009 
Q 1338 2731 1133 3434 
Q 928 4138 513 4856 
z
" transform="scale(0.015625)"/>
     </defs>
     <use xlink:href="#DejaVuSans-28"/>
     <use xlink:href="#DejaVuSans-33" x="39.013672"/>
     <use xlink:href="#DejaVuSans-2e" x="102.636719"/>
     <use xlink:href="#DejaVuSans-30" x="134.423828"/>
     <use xlink:href="#DejaVuSans-36" x="198.046875"/>
     <use xlink:href="#DejaVuSans-6d" x="261.669922"/>
     <use xlink:href="#DejaVuSans-29" x="359.082031"/>
    </g>
   </g>
   <g id="text_5">
    <!-- Zombie -->
    <g transform="translate(52.305891 238.46692) scale(0.13 -0.13)">
     <defs>
      <path id="DejaVuSans-Bold-5a" d="M 359 4666 
L 4281 4666 
L 4281 3938 
L 1778 909 
L 4353 909 
L 4353 0 
L 288 0 
L 288 728 
L 2791 3756 
L 359 3756 
L 359 4666 
z
" transform="scale(0.015625)"/>
      <path id="DejaVuSans-Bold-6d" d="M 3781 2919 
Q 3994 3244 4286 3414 
Q 4578 3584 4928 3584 
Q 5531 3584 5847 3212 
Q 6163 2841 6163 2131 
L 6163 0 
L 5038 0 
L 5038 1825 
Q 5041 1866 5042 1909 
Q 5044 1953 5044 2034 
Q 5044 2406 4934 2573 
Q 4825 2741 4581 2741 
Q 4263 2741 4089 2478 
Q 3916 2216 3909 1719 
L 3909 0 
L 2784 0 
L 2784 1825 
Q 2784 2406 2684 2573 
Q 2584 2741 2328 2741 
Q 2006 2741 1831 2477 
Q 1656 2213 1656 1722 
L 1656 0 
L 531 0 
L 531 3500 
L 1656 3500 
L 1656 2988 
Q 1863 3284 2130 3434 
Q 2397 3584 2719 3584 
Q 3081 3584 3359 3409 
Q 3638 3234 3781 2919 
z
" transform="scale(0.015625)"/>
      <path id="DejaVuSans-Bold-62" d="M 2400 722 
Q 2759 722 2948 984 
Q 3138 1247 3138 1747 
Q 3138 2247 2948 2509 
Q 2759 2772 2400 2772 
Q 2041 2772 1848 2508 
Q 1656 2244 1656 1747 
Q 1656 1250 1848 986 
Q 2041 722 2400 722 
z
M 1656 2988 
Q 1888 3294 2169 3439 
Q 2450 3584 2816 3584 
Q 3463 3584 3878 3070 
Q 4294 2556 4294 1747 
Q 4294 938 3878 423 
Q 3463 -91 2816 -91 
Q 2450 -91 2169 54 
Q 1888 200 1656 506 
L 1656 0 
L 538 0 
L 538 4863 
L 1656 4863 
L 1656 2988 
z
" transform="scale(0.015625)"/>
     </defs>
     <use xlink:href="#DejaVuSans-Bold-5a"/>
     <use xlink:href="#DejaVuSans-Bold-6f" x="72.509766"/>
     <use xlink:href="#DejaVuSans-Bold-6d" x="141.210938"/>
     <use xlink:href="#DejaVuSans-Bold-62" x="245.410156"/>
     <use xlink:href="#DejaVuSans-Bold-69" x="316.992188"/>
     <use xlink:href="#DejaVuSans-Bold-65" x="351.269531"/>
    </g>
   </g>
   <g id="text_6">
    <!-- (1.61m) -->
    <g style="fill: #333333" transform="translate(57.652844 252.195525) scale(0.11 -0.11)">
     <defs>
      <path id="DejaVuSans-31" d="M 794 531 
L 1825 531 
L 1825 4091 
L 703 3866 
L 703 4441 
L 1819 4666 
L 2450 4666 
L 2450 531 
L 3481 531 
L 3481 0 
L 794 0 
L 794 531 
z
" transform="scale(0.015625)"/>
     </defs>
     <use xlink:href="#DejaVuSans-28"/>
     <use xlink:href="#DejaVuSans-31" x="39.013672"/>
     <use xlink:href="#DejaVuSans-2e" x="102.636719"/>
     <use xlink:href="#DejaVuSans-36" x="134.423828"/>
     <use xlink:href="#DejaVuSans-31" x="198.046875"/>
     <use xlink:href="#DejaVuSans-6d" x="261.669922"/>
     <use xlink:href="#DejaVuSans-29" x="359.082031"/>
    </g>
   </g>
   <g id="text_7">
    <!-- Dead -->
    <g transform="translate(202.506174 174.66052) scale(0.13 -0.13)">
     <defs>
      <path id="DejaVuSans-Bold-44" d="M 1791 3756 
L 1791 909 
L 2222 909 
Q 2959 909 3348 1275 
Q 3738 1641 3738 2338 
Q 3738 3031 3350 3393 
Q 2963 3756 2222 3756 
L 1791 3756 
z
M 588 4666 
L 1856 4666 
Q 2919 4666 3439 4514 
Q 3959 4363 4331 4000 
Q 4659 3684 4818 3271 
Q 4978 2859 4978 2338 
Q 4978 1809 4818 1395 
Q 4659 981 4331 666 
Q 3956 303 3431 151 
Q 2906 0 1856 0 
L 588 0 
L 588 4666 
z
" transform="scale(0.015625)"/>
     </defs>
     <use xlink:href="#DejaVuSans-Bold-44"/>
     <use xlink:href="#DejaVuSans-Bold-65" x="83.007812"/>
     <use xlink:href="#DejaVuSans-Bold-61" x="150.830078"/>
     <use xlink:href="#DejaVuSans-Bold-64" x="218.310547"/>
    </g>
   </g>
   <g id="text_8">
    <!-- (3.48m) -->
    <g style="fill: #333333" transform="translate(199.454924 188.389125) scale(0.11 -0.11)">
     <defs>
      <path id="DejaVuSans-34" d="M 2419 4116 
L 825 1625 
L 2419 1625 
L 2419 4116 
z
M 2253 4666 
L 3047 4666 
L 3047 1625 
L 3713 1625 
L 3713 1100 
L 3047 1100 
L 3047 0 
L 2419 0 
L 2419 1100 
L 313 1100 
L 313 1709 
L 2253 4666 
z
" transform="scale(0.015625)"/>
      <path id="DejaVuSans-38" d="M 2034 2216 
Q 1584 2216 1326 1975 
Q 1069 1734 1069 1313 
Q 1069 891 1326 650 
Q 1584 409 2034 409 
Q 2484 409 2743 651 
Q 3003 894 3003 1313 
Q 3003 1734 2745 1975 
Q 2488 2216 2034 2216 
z
M 1403 2484 
Q 997 2584 770 2862 
Q 544 3141 544 3541 
Q 544 4100 942 4425 
Q 1341 4750 2034 4750 
Q 2731 4750 3128 4425 
Q 3525 4100 3525 3541 
Q 3525 3141 3298 2862 
Q 3072 2584 2669 2484 
Q 3125 2378 3379 2068 
Q 3634 1759 3634 1313 
Q 3634 634 3220 271 
Q 2806 -91 2034 -91 
Q 1263 -91 848 271 
Q 434 634 434 1313 
Q 434 1759 690 2068 
Q 947 2378 1403 2484 
z
M 1172 3481 
Q 1172 3119 1398 2916 
Q 1625 2713 2034 2713 
Q 2441 2713 2670 2916 
Q 2900 3119 2900 3481 
Q 2900 3844 2670 4047 
Q 2441 4250 2034 4250 
Q 1625 4250 1398 4047 
Q 1172 3844 1172 3481 
z
" transform="scale(0.015625)"/>
     </defs>
     <use xlink:href="#DejaVuSans-28"/>
     <use xlink:href="#DejaVuSans-33" x="39.013672"/>
     <use xlink:href="#DejaVuSans-2e" x="102.636719"/>
     <use xlink:href="#DejaVuSans-34" x="134.423828"/>
     <use xlink:href="#DejaVuSans-38" x="198.046875"/>
     <use xlink:href="#DejaVuSans-6d" x="261.669922"/>
     <use xlink:href="#DejaVuSans-29" x="359.082031"/>
    </g>
   </g>
   <g id="text_9">
    <g id="patch_15">
     <path d="M 61.196047 59.386381 
L 97.899953 59.386381 
L 97.899953 46.980444 
L 61.196047 46.980444 
z
" style="fill: #ffffff; opacity: 0.9"/>
    </g>
    <!-- 67.3% -->
    <g transform="translate(62.076047 56.218725) scale(0.11 -0.11)">
     <defs>
      <path id="DejaVuSans-37" d="M 525 4666 
L 3525 4666 
L 3525 4397 
L 1831 0 
L 1172 0 
L 2766 4134 
L 525 4134 
L 525 4666 
z
" transform="scale(0.015625)"/>
      <path id="DejaVuSans-25" d="M 4653 2053 
Q 4381 2053 4226 1822 
Q 4072 1591 4072 1178 
Q 4072 772 4226 539 
Q 4381 306 4653 306 
Q 4919 306 5073 539 
Q 5228 772 5228 1178 
Q 5228 1588 5073 1820 
Q 4919 2053 4653 2053 
z
M 4653 2450 
Q 5147 2450 5437 2106 
Q 5728 1763 5728 1178 
Q 5728 594 5436 251 
Q 5144 -91 4653 -91 
Q 4153 -91 3862 251 
Q 3572 594 3572 1178 
Q 3572 1766 3864 2108 
Q 4156 2450 4653 2450 
z
M 1428 4353 
Q 1159 4353 1004 4120 
Q 850 3888 850 3481 
Q 850 3069 1003 2837 
Q 1156 2606 1428 2606 
Q 1700 2606 1854 2837 
Q 2009 3069 2009 3481 
Q 2009 3884 1853 4118 
Q 1697 4353 1428 4353 
z
M 4250 4750 
L 4750 4750 
L 1831 -91 
L 1331 -91 
L 4250 4750 
z
M 1428 4750 
Q 1922 4750 2215 4408 
Q 2509 4066 2509 3481 
Q 2509 2891 2217 2550 
Q 1925 2209 1428 2209 
Q 931 2209 642 2551 
Q 353 2894 353 3481 
Q 353 4063 643 4406 
Q 934 4750 1428 4750 
z
" transform="scale(0.015625)"/>
     </defs>
     <use xlink:href="#DejaVuSans-36"/>
     <use xlink:href="#DejaVuSans-37" x="63.623047"/>
     <use xlink:href="#DejaVuSans-2e" x="127.246094"/>
     <use xlink:href="#DejaVuSans-33" x="159.033203"/>
     <use xlink:href="#DejaVuSans-25" x="222.65625"/>
    </g>
   </g>
   <g id="text_10">
    <g id="patch_16">
     <path d="M 61.196047 308.535181 
L 97.899953 308.535181 
L 97.899953 296.129244 
L 61.196047 296.129244 
z
" style="fill: #ffffff; opacity: 0.9"/>
    </g>
    <!-- 38.3% -->
    <g transform="translate(62.076047 305.367525) scale(0.11 -0.11)">
     <use xlink:href="#DejaVuSans-33"/>
     <use xlink:href="#DejaVuSans-38" x="63.623047"/>
     <use xlink:href="#DejaVuSans-2e" x="127.246094"/>
     <use xlink:href="#DejaVuSans-33" x="159.033203"/>
     <use xlink:href="#DejaVuSans-25" x="222.65625"/>
    </g>
   </g>
   <g id="text_11">
    <g id="patch_17">
     <path d="M 282.580927 183.960781 
L 319.284833 183.960781 
L 319.284833 171.554844 
L 282.580927 171.554844 
z
" style="fill: #ffffff; opacity: 0.9"/>
    </g>
    <!-- 72.8% -->
    <g transform="translate(283.460927 180.793125) scale(0.11 -0.11)">
     <defs>
      <path id="DejaVuSans-32" d="M 1228 531 
L 3431 531 
L 3431 0 
L 469 0 
L 469 531 
Q 828 903 1448 1529 
Q 2069 2156 2228 2338 
Q 2531 2678 2651 2914 
Q 2772 3150 2772 3378 
Q 2772 3750 2511 3984 
Q 2250 4219 1831 4219 
Q 1534 4219 1204 4116 
Q 875 4013 500 3803 
L 500 4441 
Q 881 4594 1212 4672 
Q 1544 4750 1819 4750 
Q 2544 4750 2975 4387 
Q 3406 4025 3406 3419 
Q 3406 3131 3298 2873 
Q 3191 2616 2906 2266 
Q 2828 2175 2409 1742 
Q 1991 1309 1228 531 
z
" transform="scale(0.015625)"/>
     </defs>
     <use xlink:href="#DejaVuSans-37"/>
     <use xlink:href="#DejaVuSans-32" x="63.623047"/>
     <use xlink:href="#DejaVuSans-2e" x="127.246094"/>
     <use xlink:href="#DejaVuSans-38" x="159.033203"/>
     <use xlink:href="#DejaVuSans-25" x="222.65625"/>
    </g>
   </g>
   <g id="text_12">
    <g id="patch_18">
     <path d="M 23.575087 183.960781 
L 60.278993 183.960781 
L 60.278993 171.554844 
L 23.575087 171.554844 
z
" style="fill: #ffffff; opacity: 0.9"/>
    </g>
    <!-- 11.4% -->
    <g transform="translate(24.455087 180.793125) scale(0.11 -0.11)">
     <use xlink:href="#DejaVuSans-31"/>
     <use xlink:href="#DejaVuSans-31" x="63.623047"/>
     <use xlink:href="#DejaVuSans-2e" x="127.246094"/>
     <use xlink:href="#DejaVuSans-34" x="159.033203"/>
     <use xlink:href="#DejaVuSans-25" x="222.65625"/>
    </g>
   </g>
   <g id="text_13">
    <g id="patch_19">
     <path d="M 98.817007 183.960781 
L 135.520913 183.960781 
L 135.520913 171.554844 
L 98.817007 171.554844 
z
" style="fill: #ffffff; opacity: 0.9"/>
    </g>
    <!-- 32.8% -->
    <g transform="translate(99.697007 180.793125) scale(0.11 -0.11)">
     <use xlink:href="#DejaVuSans-33"/>
     <use xlink:href="#DejaVuSans-32" x="63.623047"/>
     <use xlink:href="#DejaVuSans-2e" x="127.246094"/>
     <use xlink:href="#DejaVuSans-38" x="159.033203"/>
     <use xlink:href="#DejaVuSans-25" x="222.65625"/>
    </g>
   </g>
   <g id="text_14">
    <g id="patch_20">
     <path d="M 136.437967 130.788781 
L 173.141873 130.788781 
L 173.141873 118.382844 
L 136.437967 118.382844 
z
" style="fill: #ffffff; opacity: 0.9"/>
    </g>
    <!-- 21.3% -->
    <g transform="translate(137.317967 127.621125) scale(0.11 -0.11)">
     <use xlink:href="#DejaVuSans-32"/>
     <use xlink:href="#DejaVuSans-31" x="63.623047"/>
     <use xlink:href="#DejaVuSans-2e" x="127.246094"/>
     <use xlink:href="#DejaVuSans-33" x="159.033203"/>
     <use xlink:href="#DejaVuSans-25" x="222.65625"/>
    </g>
   </g>
   <g id="text_15">
    <g id="patch_21">
     <path d="M 136.437967 164.211181 
L 173.141873 164.211181 
L 173.141873 151.805244 
L 136.437967 151.805244 
z
" style="fill: #ffffff; opacity: 0.9"/>
    </g>
    <!-- 17.8% -->
    <g transform="translate(137.317967 161.043525) scale(0.11 -0.11)">
     <use xlink:href="#DejaVuSans-31"/>
     <use xlink:href="#DejaVuSans-37" x="63.623047"/>
     <use xlink:href="#DejaVuSans-2e" x="127.246094"/>
     <use xlink:href="#DejaVuSans-38" x="159.033203"/>
     <use xlink:href="#DejaVuSans-25" x="222.65625"/>
    </g>
   </g>
   <g id="text_16">
    <g id="patch_22">
     <path d="M 136.437967 234.094381 
L 173.141873 234.094381 
L 173.141873 221.688444 
L 136.437967 221.688444 
z
" style="fill: #ffffff; opacity: 0.9"/>
    </g>
    <!-- 28.9% -->
    <g transform="translate(137.317967 230.926725) scale(0.11 -0.11)">
     <defs>
      <path id="DejaVuSans-39" d="M 703 97 
L 703 672 
Q 941 559 1184 500 
Q 1428 441 1663 441 
Q 2288 441 2617 861 
Q 2947 1281 2994 2138 
Q 2813 1869 2534 1725 
Q 2256 1581 1919 1581 
Q 1219 1581 811 2004 
Q 403 2428 403 3163 
Q 403 3881 828 4315 
Q 1253 4750 1959 4750 
Q 2769 4750 3195 4129 
Q 3622 3509 3622 2328 
Q 3622 1225 3098 567 
Q 2575 -91 1691 -91 
Q 1453 -91 1209 -44 
Q 966 3 703 97 
z
M 1959 2075 
Q 2384 2075 2632 2365 
Q 2881 2656 2881 3163 
Q 2881 3666 2632 3958 
Q 2384 4250 1959 4250 
Q 1534 4250 1286 3958 
Q 1038 3666 1038 3163 
Q 1038 2656 1286 2365 
Q 1534 2075 1959 2075 
z
" transform="scale(0.015625)"/>
     </defs>
     <use xlink:href="#DejaVuSans-32"/>
     <use xlink:href="#DejaVuSans-38" x="63.623047"/>
     <use xlink:href="#DejaVuSans-2e" x="127.246094"/>
     <use xlink:href="#DejaVuSans-39" x="159.033203"/>
     <use xlink:href="#DejaVuSans-25" x="222.65625"/>
    </g>
   </g>
   <g id="text_17">
    <g id="patch_23">
     <path d="M 139.937342 203.710381 
L 169.642498 203.710381 
L 169.642498 191.304444 
L 139.937342 191.304444 
z
" style="fill: #ffffff; opacity: 0.9"/>
    </g>
    <!-- 9.4% -->
    <g transform="translate(140.817342 200.542725) scale(0.11 -0.11)">
     <use xlink:href="#DejaVuSans-39"/>
     <use xlink:href="#DejaVuSans-2e" x="63.623047"/>
     <use xlink:href="#DejaVuSans-34" x="95.410156"/>
     <use xlink:href="#DejaVuSans-25" x="159.033203"/>
    </g>
   </g>
  </g>
  <g id="axes_2">
   <g id="patch_24">
    <path d="M 333.37568 305.370612 
L 460.70816 305.370612 
Q 463.60208 305.370612 463.60208 302.332212 
L 463.60208 47.106612 
Q 463.60208 44.068212 460.70816 44.068212 
L 333.37568 44.068212 
Q 330.48176 44.068212 330.48176 47.106612 
L 330.48176 302.332212 
Q 330.48176 305.370612 333.37568 305.370612 
z
" clip-path="url(#p750dacc36d)" style="fill: #f5f5f5; stroke: #aaaaaa; stroke-width: 1.2; stroke-linejoin: miter"/>
   </g>
   <g id="text_18">
    <!-- Alive -->
    <g style="fill: #666666" transform="translate(382.36067 42.821862) scale(0.12 -0.12)">
     <use xlink:href="#DejaVuSans-Oblique-41"/>
     <use xlink:href="#DejaVuSans-Oblique-6c" x="68.408203"/>
     <use xlink:href="#DejaVuSans-Oblique-69" x="96.191406"/>
     <use xlink:href="#DejaVuSans-Oblique-76" x="123.974609"/>
     <use xlink:href="#DejaVuSans-Oblique-65" x="183.154297"/>
    </g>
   </g>
   <g id="patch_25">
    <path d="M 394.148 139.777812 
C 402.97398 139.777812 411.43966 137.05658 417.68057 132.213435 
C 423.921481 127.37029 427.42808 120.800654 427.42808 113.951412 
C 427.42808 107.102171 423.921481 100.532535 417.68057 95.68939 
C 411.43966 90.846245 402.97398 88.125012 394.148 88.125012 
C 385.32202 88.125012 376.85634 90.846245 370.61543 95.68939 
C 364.374519 100.532535 360.86792 107.102171 360.86792 113.951412 
C 360.86792 120.800654 364.374519 127.37029 370.61543 132.213435 
C 376.85634 137.05658 385.32202 139.777812 394.148 139.777812 
z
" clip-path="url(#p750dacc36d)" style="fill: #c8e6c9; stroke: #000000; stroke-width: 1.5; stroke-linejoin: miter"/>
   </g>
   <g id="patch_26">
    <path d="M 394.148 267.390612 
C 402.97398 267.390612 411.43966 264.66938 417.68057 259.826235 
C 423.921481 254.98309 427.42808 248.413454 427.42808 241.564212 
C 427.42808 234.714971 423.921481 228.145335 417.68057 223.30219 
C 411.43966 218.459045 402.97398 215.737812 394.148 215.737812 
C 385.32202 215.737812 376.85634 218.459045 370.61543 223.30219 
C 364.374519 228.145335 360.86792 234.714971 360.86792 241.564212 
C 360.86792 248.413454 364.374519 254.98309 370.61543 259.826235 
C 376.85634 264.66938 385.32202 267.390612 394.148 267.390612 
z
" clip-path="url(#p750dacc36d)" style="fill: #fff3cd; stroke: #000000; stroke-width: 1.5; stroke-linejoin: miter"/>
   </g>
   <g id="patch_27">
    <path d="M 535.95008 203.584212 
C 544.77606 203.584212 553.24174 200.86298 559.48265 196.019835 
C 565.723561 191.17669 569.23016 184.607054 569.23016 177.757812 
C 569.23016 170.908571 565.723561 164.338935 559.48265 159.49579 
C 553.24174 154.652645 544.77606 151.931412 535.95008 151.931412 
C 527.1241 151.931412 518.65842 154.652645 512.41751 159.49579 
C 506.176599 164.338935 502.67 170.908571 502.67 177.757812 
C 502.67 184.607054 506.176599 191.17669 512.41751 196.019835 
C 518.65842 200.86298 527.1241 203.584212 535.95008 203.584212 
z
" clip-path="url(#p750dacc36d)" style="fill: #f8d7da; stroke: #000000; stroke-width: 1.5; stroke-linejoin: miter"/>
   </g>
   <g id="text_19">
    <!-- (b) User-owned -->
    <g transform="translate(405.676938 17.837812) scale(0.14 -0.14)">
     <defs>
      <path id="DejaVuSans-Bold-55" d="M 588 4666 
L 1791 4666 
L 1791 1869 
Q 1791 1291 1980 1042 
Q 2169 794 2597 794 
Q 3028 794 3217 1042 
Q 3406 1291 3406 1869 
L 3406 4666 
L 4609 4666 
L 4609 1869 
Q 4609 878 4112 393 
Q 3616 -91 2597 -91 
Q 1581 -91 1084 393 
Q 588 878 588 1869 
L 588 4666 
z
" transform="scale(0.015625)"/>
      <path id="DejaVuSans-Bold-73" d="M 3272 3391 
L 3272 2541 
Q 2913 2691 2578 2766 
Q 2244 2841 1947 2841 
Q 1628 2841 1473 2761 
Q 1319 2681 1319 2516 
Q 1319 2381 1436 2309 
Q 1553 2238 1856 2203 
L 2053 2175 
Q 2913 2066 3209 1816 
Q 3506 1566 3506 1031 
Q 3506 472 3093 190 
Q 2681 -91 1863 -91 
Q 1516 -91 1145 -36 
Q 775 19 384 128 
L 384 978 
Q 719 816 1070 734 
Q 1422 653 1784 653 
Q 2113 653 2278 743 
Q 2444 834 2444 1013 
Q 2444 1163 2330 1236 
Q 2216 1309 1875 1350 
L 1678 1375 
Q 931 1469 631 1722 
Q 331 1975 331 2491 
Q 331 3047 712 3315 
Q 1094 3584 1881 3584 
Q 2191 3584 2531 3537 
Q 2872 3491 3272 3391 
z
" transform="scale(0.015625)"/>
     </defs>
     <use xlink:href="#DejaVuSans-Bold-28"/>
     <use xlink:href="#DejaVuSans-Bold-62" x="45.703125"/>
     <use xlink:href="#DejaVuSans-Bold-29" x="117.285156"/>
     <use xlink:href="#DejaVuSans-Bold-20" x="162.988281"/>
     <use xlink:href="#DejaVuSans-Bold-55" x="197.802734"/>
     <use xlink:href="#DejaVuSans-Bold-73" x="279.003906"/>
     <use xlink:href="#DejaVuSans-Bold-65" x="338.525391"/>
     <use xlink:href="#DejaVuSans-Bold-72" x="406.347656"/>
     <use xlink:href="#DejaVuSans-Bold-2d" x="455.664062"/>
     <use xlink:href="#DejaVuSans-Bold-6f" x="497.167969"/>
     <use xlink:href="#DejaVuSans-Bold-77" x="565.869141"/>
     <use xlink:href="#DejaVuSans-Bold-6e" x="658.251953"/>
     <use xlink:href="#DejaVuSans-Bold-65" x="729.443359"/>
     <use xlink:href="#DejaVuSans-Bold-64" x="797.265625"/>
    </g>
   </g>
   <g id="patch_28">
    <path d="M 380.527994 91.476058 
Q 394.14847 63.270434 407.136948 90.169158 
" clip-path="url(#p750dacc36d)" style="fill: none; stroke: #000000; stroke-width: 1.3; stroke-linecap: round"/>
    <path d="M 407.217181 84.355935 
L 407.136948 90.169158 
L 402.534509 86.617038 
z
" clip-path="url(#p750dacc36d)" style="stroke: #000000; stroke-width: 1.3; stroke-linecap: round"/>
   </g>
   <g id="patch_29">
    <path d="M 407.768006 264.039567 
Q 394.14753 292.245191 381.159052 265.346467 
" clip-path="url(#p750dacc36d)" style="fill: none; stroke: #000000; stroke-width: 1.3; stroke-linecap: round"/>
    <path d="M 381.078819 271.15969 
L 381.159052 265.346467 
L 385.761491 268.898587 
z
" clip-path="url(#p750dacc36d)" style="stroke: #000000; stroke-width: 1.3; stroke-linecap: round"/>
   </g>
   <g id="patch_30">
    <path d="M 566.044807 167.064588 
Q 587.831403 177.757267 567.351772 187.809524 
" clip-path="url(#p750dacc36d)" style="fill: none; stroke: #000000; stroke-width: 1.3; stroke-linecap: round"/>
    <path d="M 573.165392 187.852275 
L 567.351772 187.809524 
L 570.874145 183.184279 
z
" clip-path="url(#p750dacc36d)" style="stroke: #000000; stroke-width: 1.3; stroke-linecap: round"/>
   </g>
   <g id="patch_31">
    <path d="M 386.9132 141.776028 
Q 386.9132 177.75701 386.9132 212.284547 
" clip-path="url(#p750dacc36d)" style="fill: none; stroke: #000000; stroke-width: 1.3; stroke-linecap: round"/>
    <path d="M 389.5132 207.084547 
L 386.9132 212.284547 
L 384.3132 207.084547 
z
" clip-path="url(#p750dacc36d)" style="stroke: #000000; stroke-width: 1.3; stroke-linecap: round"/>
   </g>
   <g id="patch_32">
    <path d="M 401.3828 213.739597 
Q 401.3828 177.758615 401.3828 143.231078 
" clip-path="url(#p750dacc36d)" style="fill: none; stroke: #000000; stroke-width: 1.3; stroke-linecap: round"/>
    <path d="M 398.7828 148.431078 
L 401.3828 143.231078 
L 403.9828 148.431078 
z
" clip-path="url(#p750dacc36d)" style="stroke: #000000; stroke-width: 1.3; stroke-linecap: round"/>
   </g>
   <g id="patch_33">
    <path d="M 428.653869 110.971786 
Q 458.043853 148.450425 499.561274 168.658843 
" clip-path="url(#p750dacc36d)" style="fill: none; stroke: #000000; stroke-width: 1.3; stroke-linecap: round"/>
    <path d="M 496.023628 164.045269 
L 499.561274 168.658843 
L 493.747827 168.720815 
z
" clip-path="url(#p750dacc36d)" style="stroke: #000000; stroke-width: 1.3; stroke-linecap: round"/>
   </g>
   <g id="patch_34">
    <path d="M 501.520426 183.720429 
Q 472.767865 143.246411 430.465426 120.156809 
" clip-path="url(#p750dacc36d)" style="fill: none; stroke: #000000; stroke-width: 1.3; stroke-linecap: round"/>
    <path d="M 433.784116 124.930308 
L 430.465426 120.156809 
L 436.27544 120.365957 
z
" clip-path="url(#p750dacc36d)" style="stroke: #000000; stroke-width: 1.3; stroke-linecap: round"/>
   </g>
   <g id="patch_35">
    <path d="M 428.774322 235.527772 
Q 459.108783 202.528962 499.452135 186.612848 
" clip-path="url(#p750dacc36d)" style="fill: none; stroke: #000000; stroke-width: 1.3; stroke-linecap: round"/>
    <path d="M 493.660792 186.102606 
L 499.452135 186.612848 
L 495.569135 190.939777 
z
" clip-path="url(#p750dacc36d)" style="stroke: #000000; stroke-width: 1.3; stroke-linecap: round"/>
   </g>
   <g id="patch_36">
    <path d="M 501.625256 171.868733 
Q 473.83722 216.849346 430.351216 244.287212 
" clip-path="url(#p750dacc36d)" style="fill: none; stroke: #000000; stroke-width: 1.3; stroke-linecap: round"/>
    <path d="M 436.136396 243.711286 
L 430.351216 244.287212 
L 433.361583 239.313512 
z
" clip-path="url(#p750dacc36d)" style="stroke: #000000; stroke-width: 1.3; stroke-linecap: round"/>
   </g>
   <g id="text_20">
    <!-- Running -->
    <g transform="translate(363.753391 110.803339) scale(0.13 -0.13)">
     <use xlink:href="#DejaVuSans-Bold-52"/>
     <use xlink:href="#DejaVuSans-Bold-75" x="77.001953"/>
     <use xlink:href="#DejaVuSans-Bold-6e" x="148.193359"/>
     <use xlink:href="#DejaVuSans-Bold-6e" x="219.384766"/>
     <use xlink:href="#DejaVuSans-Bold-69" x="290.576172"/>
     <use xlink:href="#DejaVuSans-Bold-6e" x="324.853516"/>
     <use xlink:href="#DejaVuSans-Bold-67" x="396.044922"/>
    </g>
   </g>
   <g id="text_21">
    <!-- (2.47m) -->
    <g style="fill: #333333" transform="translate(372.252844 124.582725) scale(0.11 -0.11)">
     <use xlink:href="#DejaVuSans-28"/>
     <use xlink:href="#DejaVuSans-32" x="39.013672"/>
     <use xlink:href="#DejaVuSans-2e" x="102.636719"/>
     <use xlink:href="#DejaVuSans-34" x="134.423828"/>
     <use xlink:href="#DejaVuSans-37" x="198.046875"/>
     <use xlink:href="#DejaVuSans-6d" x="261.669922"/>
     <use xlink:href="#DejaVuSans-29" x="359.082031"/>
    </g>
   </g>
   <g id="text_22">
    <!-- Zombie -->
    <g transform="translate(366.905891 238.46692) scale(0.13 -0.13)">
     <use xlink:href="#DejaVuSans-Bold-5a"/>
     <use xlink:href="#DejaVuSans-Bold-6f" x="72.509766"/>
     <use xlink:href="#DejaVuSans-Bold-6d" x="141.210938"/>
     <use xlink:href="#DejaVuSans-Bold-62" x="245.410156"/>
     <use xlink:href="#DejaVuSans-Bold-69" x="316.992188"/>
     <use xlink:href="#DejaVuSans-Bold-65" x="351.269531"/>
    </g>
   </g>
   <g id="text_23">
    <!-- (1.37m) -->
    <g style="fill: #333333" transform="translate(372.252844 252.195525) scale(0.11 -0.11)">
     <use xlink:href="#DejaVuSans-28"/>
     <use xlink:href="#DejaVuSans-31" x="39.013672"/>
     <use xlink:href="#DejaVuSans-2e" x="102.636719"/>
     <use xlink:href="#DejaVuSans-33" x="134.423828"/>
     <use xlink:href="#DejaVuSans-37" x="198.046875"/>
     <use xlink:href="#DejaVuSans-6d" x="261.669922"/>
     <use xlink:href="#DejaVuSans-29" x="359.082031"/>
    </g>
   </g>
   <g id="text_24">
    <!-- Dead -->
    <g transform="translate(517.106174 174.66052) scale(0.13 -0.13)">
     <use xlink:href="#DejaVuSans-Bold-44"/>
     <use xlink:href="#DejaVuSans-Bold-65" x="83.007812"/>
     <use xlink:href="#DejaVuSans-Bold-61" x="150.830078"/>
     <use xlink:href="#DejaVuSans-Bold-64" x="218.310547"/>
    </g>
   </g>
   <g id="text_25">
    <!-- (5.15m) -->
    <g style="fill: #333333" transform="translate(514.054924 188.389125) scale(0.11 -0.11)">
     <defs>
      <path id="DejaVuSans-35" d="M 691 4666 
L 3169 4666 
L 3169 4134 
L 1269 4134 
L 1269 2991 
Q 1406 3038 1543 3061 
Q 1681 3084 1819 3084 
Q 2600 3084 3056 2656 
Q 3513 2228 3513 1497 
Q 3513 744 3044 326 
Q 2575 -91 1722 -91 
Q 1428 -91 1123 -41 
Q 819 9 494 109 
L 494 744 
Q 775 591 1075 516 
Q 1375 441 1709 441 
Q 2250 441 2565 725 
Q 2881 1009 2881 1497 
Q 2881 1984 2565 2268 
Q 2250 2553 1709 2553 
Q 1456 2553 1204 2497 
Q 953 2441 691 2322 
L 691 4666 
z
" transform="scale(0.015625)"/>
     </defs>
     <use xlink:href="#DejaVuSans-28"/>
     <use xlink:href="#DejaVuSans-35" x="39.013672"/>
     <use xlink:href="#DejaVuSans-2e" x="102.636719"/>
     <use xlink:href="#DejaVuSans-31" x="134.423828"/>
     <use xlink:href="#DejaVuSans-35" x="198.046875"/>
     <use xlink:href="#DejaVuSans-6d" x="261.669922"/>
     <use xlink:href="#DejaVuSans-29" x="359.082031"/>
    </g>
   </g>
   <g id="text_26">
    <g id="patch_37">
     <path d="M 375.796047 59.386381 
L 412.499953 59.386381 
L 412.499953 46.980444 
L 375.796047 46.980444 
z
" style="fill: #ffffff; opacity: 0.9"/>
    </g>
    <!-- 59.5% -->
    <g transform="translate(376.676047 56.218725) scale(0.11 -0.11)">
     <use xlink:href="#DejaVuSans-35"/>
     <use xlink:href="#DejaVuSans-39" x="63.623047"/>
     <use xlink:href="#DejaVuSans-2e" x="127.246094"/>
     <use xlink:href="#DejaVuSans-35" x="159.033203"/>
     <use xlink:href="#DejaVuSans-25" x="222.65625"/>
    </g>
   </g>
   <g id="text_27">
    <g id="patch_38">
     <path d="M 375.796047 308.535181 
L 412.499953 308.535181 
L 412.499953 296.129244 
L 375.796047 296.129244 
z
" style="fill: #ffffff; opacity: 0.9"/>
    </g>
    <!-- 27.4% -->
    <g transform="translate(376.676047 305.367525) scale(0.11 -0.11)">
     <use xlink:href="#DejaVuSans-32"/>
     <use xlink:href="#DejaVuSans-37" x="63.623047"/>
     <use xlink:href="#DejaVuSans-2e" x="127.246094"/>
     <use xlink:href="#DejaVuSans-34" x="159.033203"/>
     <use xlink:href="#DejaVuSans-25" x="222.65625"/>
    </g>
   </g>
   <g id="text_28">
    <g id="patch_39">
     <path d="M 597.180927 183.960781 
L 633.884833 183.960781 
L 633.884833 171.554844 
L 597.180927 171.554844 
z
" style="fill: #ffffff; opacity: 0.9"/>
    </g>
    <!-- 82.6% -->
    <g transform="translate(598.060927 180.793125) scale(0.11 -0.11)">
     <use xlink:href="#DejaVuSans-38"/>
     <use xlink:href="#DejaVuSans-32" x="63.623047"/>
     <use xlink:href="#DejaVuSans-2e" x="127.246094"/>
     <use xlink:href="#DejaVuSans-36" x="159.033203"/>
     <use xlink:href="#DejaVuSans-25" x="222.65625"/>
    </g>
   </g>
   <g id="text_29">
    <g id="patch_40">
     <path d="M 338.175087 183.960781 
L 374.878993 183.960781 
L 374.878993 171.554844 
L 338.175087 171.554844 
z
" style="fill: #ffffff; opacity: 0.9"/>
    </g>
    <!-- 13.6% -->
    <g transform="translate(339.055087 180.793125) scale(0.11 -0.11)">
     <use xlink:href="#DejaVuSans-31"/>
     <use xlink:href="#DejaVuSans-33" x="63.623047"/>
     <use xlink:href="#DejaVuSans-2e" x="127.246094"/>
     <use xlink:href="#DejaVuSans-36" x="159.033203"/>
     <use xlink:href="#DejaVuSans-25" x="222.65625"/>
    </g>
   </g>
   <g id="text_30">
    <g id="patch_41">
     <path d="M 413.417007 183.960781 
L 450.120913 183.960781 
L 450.120913 171.554844 
L 413.417007 171.554844 
z
" style="fill: #ffffff; opacity: 0.9"/>
    </g>
    <!-- 35.6% -->
    <g transform="translate(414.297007 180.793125) scale(0.11 -0.11)">
     <use xlink:href="#DejaVuSans-33"/>
     <use xlink:href="#DejaVuSans-35" x="63.623047"/>
     <use xlink:href="#DejaVuSans-2e" x="127.246094"/>
     <use xlink:href="#DejaVuSans-36" x="159.033203"/>
     <use xlink:href="#DejaVuSans-25" x="222.65625"/>
    </g>
   </g>
   <g id="text_31">
    <g id="patch_42">
     <path d="M 451.037967 130.788781 
L 487.741873 130.788781 
L 487.741873 118.382844 
L 451.037967 118.382844 
z
" style="fill: #ffffff; opacity: 0.9"/>
    </g>
    <!-- 26.9% -->
    <g transform="translate(451.917967 127.621125) scale(0.11 -0.11)">
     <use xlink:href="#DejaVuSans-32"/>
     <use xlink:href="#DejaVuSans-36" x="63.623047"/>
     <use xlink:href="#DejaVuSans-2e" x="127.246094"/>
     <use xlink:href="#DejaVuSans-39" x="159.033203"/>
     <use xlink:href="#DejaVuSans-25" x="222.65625"/>
    </g>
   </g>
   <g id="text_32">
    <g id="patch_43">
     <path d="M 451.037967 164.211181 
L 487.741873 164.211181 
L 487.741873 151.805244 
L 451.037967 151.805244 
z
" style="fill: #ffffff; opacity: 0.9"/>
    </g>
    <!-- 11.2% -->
    <g transform="translate(451.917967 161.043525) scale(0.11 -0.11)">
     <use xlink:href="#DejaVuSans-31"/>
     <use xlink:href="#DejaVuSans-31" x="63.623047"/>
     <use xlink:href="#DejaVuSans-2e" x="127.246094"/>
     <use xlink:href="#DejaVuSans-32" x="159.033203"/>
     <use xlink:href="#DejaVuSans-25" x="222.65625"/>
    </g>
   </g>
   <g id="text_33">
    <g id="patch_44">
     <path d="M 451.037967 234.094381 
L 487.741873 234.094381 
L 487.741873 221.688444 
L 451.037967 221.688444 
z
" style="fill: #ffffff; opacity: 0.9"/>
    </g>
    <!-- 37.0% -->
    <g transform="translate(451.917967 230.926725) scale(0.11 -0.11)">
     <use xlink:href="#DejaVuSans-33"/>
     <use xlink:href="#DejaVuSans-37" x="63.623047"/>
     <use xlink:href="#DejaVuSans-2e" x="127.246094"/>
     <use xlink:href="#DejaVuSans-30" x="159.033203"/>
     <use xlink:href="#DejaVuSans-25" x="222.65625"/>
    </g>
   </g>
   <g id="text_34">
    <g id="patch_45">
     <path d="M 454.537342 203.710381 
L 484.242498 203.710381 
L 484.242498 191.304444 
L 454.537342 191.304444 
z
" style="fill: #ffffff; opacity: 0.9"/>
    </g>
    <!-- 6.2% -->
    <g transform="translate(455.417342 200.542725) scale(0.11 -0.11)">
     <use xlink:href="#DejaVuSans-36"/>
     <use xlink:href="#DejaVuSans-2e" x="63.623047"/>
     <use xlink:href="#DejaVuSans-32" x="95.410156"/>
     <use xlink:href="#DejaVuSans-25" x="159.033203"/>
    </g>
   </g>
  </g>
 </g>
 <defs>
  <clipPath id="pc2d1ceabb8">
   <rect x="7.2" y="25.837812" width="289.392" height="303.84"/>
  </clipPath>
  <clipPath id="p750dacc36d">
   <rect x="321.8" y="25.837812" width="289.392" height="303.84"/>
  </clipPath>
 </defs>
</svg>
